<svg width="15" height="19" viewBox="0 0 15 19" fill="none" xmlns="http://www.w3.org/2000/svg">
<path d="M7.5 8.35069C7.87084 8.35069 8.23335 8.23916 8.54169 8.0302C8.85004 7.82124 9.09036 7.52424 9.23227 7.17676C9.37419 6.82928 9.41132 6.44691 9.33897 6.07803C9.26663 5.70914 9.08805 5.3703 8.82582 5.10435C8.5636 4.83839 8.22951 4.65728 7.86579 4.5839C7.50208 4.51052 7.12508 4.54818 6.78247 4.69212C6.43986 4.83605 6.14702 5.07979 5.94099 5.39252C5.73497 5.70524 5.625 6.07291 5.625 6.44902C5.625 6.95338 5.82254 7.43707 6.17418 7.7937C6.52581 8.15033 7.00272 8.35069 7.5 8.35069ZM6.83437 14.9209C6.92153 15.0101 7.02522 15.0808 7.13946 15.1291C7.2537 15.1773 7.37624 15.2022 7.5 15.2022C7.62376 15.2022 7.7463 15.1773 7.86054 15.1291C7.97478 15.0808 8.07847 15.0101 8.16563 14.9209L12 11.0225C12.8906 10.1197 13.4972 8.96938 13.7431 7.71692C13.989 6.46446 13.8631 5.16617 13.3814 3.98627C12.8997 2.80636 12.0838 1.79785 11.0369 1.08829C9.99 0.378732 8.75914 0 7.5 0C6.24086 0 5.01 0.378732 3.9631 1.08829C2.91621 1.79785 2.10031 2.80636 1.61861 3.98627C1.13691 5.16617 1.01104 6.46446 1.25693 7.71692C1.50282 8.96938 2.10942 10.1197 3 11.0225L6.83437 14.9209ZM3.02813 6.01164C3.09218 5.33372 3.3047 4.67885 3.65018 4.09487C3.99565 3.51089 4.46536 3.01254 5.025 2.63619C5.76019 2.1466 6.6205 1.88575 7.5 1.88575C8.3795 1.88575 9.23981 2.1466 9.975 2.63619C10.5309 3.01125 10.998 3.50658 11.3426 4.08657C11.6872 4.66657 11.9008 5.3168 11.968 5.99052C12.0352 6.66424 11.9544 7.3447 11.7314 7.98296C11.5084 8.62122 11.1487 9.20143 10.6781 9.68185L7.5 12.9052L4.32187 9.68185C3.8508 9.20609 3.49024 8.62979 3.26644 7.99489C3.04264 7.35999 2.96123 6.68247 3.02813 6.01164ZM14.0625 17.0983H0.9375C0.68886 17.0983 0.450403 17.1985 0.274588 17.3768C0.0987722 17.5551 0 17.797 0 18.0492C0 18.3013 0.0987722 18.5432 0.274588 18.7215C0.450403 18.8998 0.68886 19 0.9375 19H14.0625C14.3111 19 14.5496 18.8998 14.7254 18.7215C14.9012 18.5432 15 18.3013 15 18.0492C15 17.797 14.9012 17.5551 14.7254 17.3768C14.5496 17.1985 14.3111 17.0983 14.0625 17.0983Z" fill="white" fill-opacity="0.35"/>
</svg>
