<svg width="16" height="16" viewBox="0 0 16 16" fill="none" xmlns="http://www.w3.org/2000/svg">
<path d="M10.6962 8.39913C11.4646 7.79453 12.0255 6.96544 12.3009 6.02721C12.5762 5.08898 12.5522 4.08827 12.2323 3.16429C11.9124 2.24032 11.3125 1.43902 10.5159 0.871895C9.71943 0.304765 8.76595 0 7.78816 0C6.81037 0 5.85689 0.304765 5.06038 0.871895C4.26386 1.43902 3.66392 2.24032 3.34401 3.16429C3.0241 4.08827 3.00014 5.08898 3.27546 6.02721C3.55078 6.96544 4.11169 7.79453 4.88015 8.39913C3.56338 8.92668 2.41445 9.80167 1.55584 10.9308C0.69724 12.06 0.161151 13.401 0.00472794 14.8109C-0.00659481 14.9138 0.00246779 15.0179 0.0313981 15.1174C0.0603284 15.2168 0.10856 15.3096 0.173339 15.3904C0.304166 15.5535 0.494452 15.658 0.702337 15.6809C0.910222 15.7038 1.11868 15.6431 1.28184 15.5123C1.44501 15.3815 1.54952 15.1912 1.57239 14.9833C1.74451 13.4511 2.47511 12.036 3.62463 11.0083C4.77414 9.98072 6.26197 9.41264 7.80384 9.41264C9.34571 9.41264 10.8335 9.98072 11.983 11.0083C13.1326 12.036 13.8632 13.4511 14.0353 14.9833C14.0566 15.1759 14.1485 15.3538 14.2933 15.4826C14.438 15.6114 14.6253 15.6821 14.8191 15.6809H14.9053C15.1108 15.6573 15.2986 15.5534 15.4278 15.3919C15.557 15.2304 15.6171 15.0243 15.5951 14.8187C15.4379 13.4048 14.899 12.0604 14.036 10.9295C13.1729 9.7986 12.0184 8.92389 10.6962 8.39913ZM7.78816 7.84261C7.16805 7.84261 6.56187 7.65873 6.04627 7.31421C5.53067 6.9697 5.12881 6.48003 4.8915 5.90712C4.6542 5.33422 4.59211 4.70381 4.71308 4.09562C4.83406 3.48743 5.13267 2.92876 5.57115 2.49028C6.00964 2.0518 6.5683 1.75319 7.17649 1.63221C7.78468 1.51124 8.41509 1.57333 8.988 1.81063C9.5609 2.04794 10.0506 2.4498 10.3951 2.9654C10.7396 3.481 10.9235 4.08718 10.9235 4.70729C10.9235 5.53883 10.5932 6.33631 10.0052 6.9243C9.41718 7.51228 8.6197 7.84261 7.78816 7.84261Z" fill="white" fill-opacity="0.35"/>
</svg>
